<svg xmlns="http://www.w3.org/2000/svg" width="500" height="500" viewBox="0 0 500 500" version="1.1"><path d="M 319.667 183.667 C 319.300 184.033, 319 206.308, 319 233.167 L 319 282 322.500 282 L 326 282 326 232.500 L 326 183 323.167 183 C 321.608 183, 320.033 183.300, 319.667 183.667 M 307 239.437 L 307 282 310.511 282 L 314.022 282 313.761 239.750 L 313.500 197.500 310.250 197.187 L 307 196.873 307 239.437 M 294 246.500 L 294 282 297.500 282 L 301 282 301 246.500 L 301 211 297.500 211 L 294 211 294 246.500" stroke="none" fill="#fc944c" fill-rule="evenodd"/><path d="M 0 250.002 L 0 500.004 250.250 499.752 L 500.500 499.500 500.752 249.750 L 501.004 0 250.502 0 L 0 0 0 250.002 M 0.492 250.500 C 0.492 388, 0.608 444.101, 0.750 375.170 C 0.892 306.238, 0.892 193.738, 0.750 125.170 C 0.608 56.601, 0.492 113, 0.492 250.500 M 319.667 183.667 C 319.300 184.033, 319 206.308, 319 233.167 L 319 282 322.500 282 L 326 282 326 232.500 L 326 183 323.167 183 C 321.608 183, 320.033 183.300, 319.667 183.667 M 307 239.437 L 307 282 310.511 282 L 314.022 282 313.761 239.750 L 313.500 197.500 310.250 197.187 L 307 196.873 307 239.437 M 294 246.500 L 294 282 297.500 282 L 301 282 301 246.500 L 301 211 297.500 211 L 294 211 294 246.500" stroke="none" fill="#fcfcfc" fill-rule="evenodd"/></svg>